<svg width="50" height="28" viewBox="0 0 50 28" fill="none" xmlns="http://www.w3.org/2000/svg">
<g id="Vector">
<g id="Vector_2">
<path d="M12.878 10.26C-0.55962 13.5726 -1.42978 16.2654 1.16574 17.9688C3.01074 19.1796 5.54389 22.2009 7.26942 23.5766C10.4873 26.1423 17.8267 28.4056 30.3447 26.448C30.5014 26.4235 30.6771 26.4102 30.8357 26.4094C49.8447 26.3194 32.3461 15.9658 44.878 17.29C54.7635 18.3346 47.2267 12.5059 41.969 9.29634C41.7746 9.1777 41.6019 9.03733 41.4173 8.90403C39.2942 7.37098 31.1309 5.76044 12.878 10.26Z" fill="#F4BD1C"/>
<path d="M19.778 14.5555C20.0238 14.5008 20.2013 14.5555 20.3105 14.7197C20.3446 14.7744 20.3651 14.8352 20.3719 14.9021C20.3719 14.9933 20.348 15.0814 20.3003 15.1665C20.1432 15.3611 19.9453 15.4736 19.7063 15.504C19.6312 15.504 19.5527 15.4857 19.4708 15.4493C19.4026 15.4189 19.3479 15.3641 19.307 15.2851C19.2865 15.2608 19.2728 15.2121 19.266 15.1392C19.266 15.0419 19.2865 14.9568 19.3275 14.8838C19.423 14.7136 19.5732 14.6041 19.778 14.5555ZM18.8974 16.5072C18.9452 16.495 19.0203 16.4889 19.1227 16.4889C19.2797 16.495 19.4162 16.5254 19.5323 16.5801C19.621 16.6227 19.6893 16.6683 19.7371 16.7169C19.7917 16.7595 19.8429 16.8203 19.8907 16.8993C19.9521 17.0149 19.9794 17.1365 19.9726 17.2641C19.9726 17.3675 19.9658 17.4405 19.9521 17.483C19.9453 17.4952 19.7917 17.8752 19.4913 18.623C19.2046 19.304 19.051 19.6809 19.0305 19.7539C18.9622 19.9545 18.952 20.0883 18.9998 20.1552C19.0339 20.1917 19.1056 20.1977 19.2148 20.1734C19.4811 20.1187 19.6961 19.8238 19.8599 19.2888C19.8941 19.1915 19.9282 19.1398 19.9623 19.1337C19.9828 19.1277 20.0545 19.1246 20.1774 19.1246C20.3276 19.1246 20.4095 19.1307 20.4231 19.1429C20.4641 19.1672 20.4641 19.231 20.4231 19.3344C20.348 19.5715 20.2354 19.7934 20.0852 20.0001C19.8122 20.3649 19.5015 20.5686 19.1534 20.6112C19.0305 20.6355 18.9042 20.6294 18.7745 20.5929C18.638 20.5565 18.5253 20.5109 18.4366 20.4561C18.2864 20.3467 18.1874 20.1917 18.1396 19.991C18.1123 19.8755 18.1191 19.7539 18.1601 19.6262C18.1738 19.5776 18.3239 19.2037 18.6107 18.5045C18.8564 17.9208 19.0134 17.5377 19.0817 17.3553C19.15 17.1669 19.1602 17.0361 19.1124 16.9632C19.0919 16.9145 19.0203 16.9054 18.8974 16.9358C18.6926 16.9784 18.5117 17.1699 18.3547 17.5104C18.2659 17.784 18.2215 17.9147 18.2215 17.9025C18.2011 17.939 18.1874 17.9603 18.1806 17.9664C18.1669 17.9785 18.085 17.9846 17.9348 17.9846H17.7095L17.6788 17.9573C17.6583 17.939 17.6481 17.9147 17.6481 17.8843C17.6618 17.787 17.7198 17.635 17.8222 17.4283C17.9041 17.2702 17.9894 17.1395 18.0782 17.0361C18.1669 16.9267 18.2796 16.8173 18.4161 16.7078C18.5663 16.6045 18.7267 16.5376 18.8974 16.5072Z" fill="#4A3D3D"/>
<path d="M22.3241 14.3184L22.3548 14.291H22.4879C23.0887 14.3153 23.7304 14.3214 24.4131 14.3093C24.8909 14.2971 25.1264 14.291 25.1196 14.291H25.222L25.2527 14.3184C25.28 14.3427 25.2937 14.364 25.2937 14.3822L25.2015 14.747C25.1128 14.7835 24.9831 14.8017 24.8124 14.8017C24.5189 14.8078 24.3414 14.82 24.2799 14.8382L24.2287 14.8656L24.2185 14.8747C24.198 14.8929 24.0683 15.3368 23.8294 16.2062C23.5836 17.0696 23.4607 17.5073 23.4607 17.5195L26.6147 15.1118C26.6147 15.1057 26.6317 15.0875 26.6659 15.0571C26.7068 15.0145 26.7273 14.972 26.7273 14.9294C26.7273 14.9051 26.7205 14.8838 26.7068 14.8656C26.6659 14.8291 26.601 14.8078 26.5123 14.8017C26.4303 14.8017 26.3791 14.7805 26.3587 14.7379C26.3518 14.7197 26.3621 14.6497 26.3894 14.5281C26.4235 14.4126 26.4542 14.3427 26.4815 14.3184L26.5123 14.291H26.6659C27.4031 14.3214 28.0551 14.3245 28.6217 14.3001C28.7582 14.2941 28.8367 14.3123 28.8572 14.3549C28.8709 14.3731 28.8606 14.443 28.8265 14.5646C28.7855 14.7045 28.7514 14.7774 28.7241 14.7835C28.7036 14.7896 28.649 14.7957 28.5603 14.8017C28.0756 14.82 27.6762 14.9385 27.3622 15.1574C27.2871 15.2061 27.2461 15.2334 27.2393 15.2395L25.3244 16.6987L25.2937 16.7261L25.9081 18.2673C26.304 19.2949 26.5123 19.8177 26.5327 19.836C26.5737 19.8968 26.6215 19.9363 26.6761 19.9545C26.758 19.9849 26.9048 20.0032 27.1164 20.0093C27.2734 20.0093 27.3656 20.0305 27.3929 20.0731C27.3997 20.0913 27.3895 20.1613 27.3622 20.2829C27.328 20.3984 27.2973 20.4683 27.27 20.4926L27.2393 20.52H27.1164C26.5635 20.4957 25.8637 20.4926 25.0172 20.5109C24.7988 20.5169 24.6759 20.4987 24.6486 20.4561C24.6418 20.4379 24.652 20.368 24.6793 20.2464C24.7203 20.1065 24.7612 20.0336 24.8022 20.0275C24.8158 20.0214 24.8636 20.0153 24.9455 20.0093C25.1981 20.0032 25.3278 19.9454 25.3347 19.836C25.3347 19.8056 25.1776 19.3921 24.8636 18.5957L24.3926 17.4101L23.2457 18.2856L22.7849 19.9637C22.819 19.9941 23.0238 20.0093 23.3993 20.0093C23.5631 20.0093 23.6553 20.0305 23.6758 20.0731C23.6894 20.0913 23.6792 20.1613 23.6451 20.2829C23.6041 20.4105 23.5768 20.4805 23.5631 20.4926L23.5324 20.52H23.3788C22.6688 20.4896 21.8599 20.4865 20.9519 20.5109C20.7471 20.5169 20.6311 20.4987 20.6038 20.4561C20.5901 20.4379 20.6004 20.368 20.6345 20.2464C20.6686 20.1187 20.6959 20.0488 20.7164 20.0366L20.7471 20.0093H21.0748C21.3888 20.0032 21.5663 19.991 21.6073 19.9728C21.6414 19.9545 21.6687 19.9181 21.6892 19.8633C21.737 19.7417 21.9725 18.9209 22.3958 17.4009C22.8668 15.7229 23.1023 14.8777 23.1023 14.8656C23.1023 14.8473 23.0955 14.8382 23.0819 14.8382C23.0409 14.8261 22.8805 14.8139 22.6006 14.8017C22.3616 14.8017 22.2285 14.7805 22.2012 14.7379C22.1944 14.7197 22.2046 14.6497 22.2319 14.5281C22.2661 14.4126 22.2968 14.3427 22.3241 14.3184Z" fill="#4A3D3D"/>
<path d="M42.8218 4.61218H36.7766C35.617 4.61218 34.304 5.18234 33.1482 5.08731C27.8002 4.64756 13.1179 -2.76559 25.5209 6.64651C33.6418 14.3769 41.233 16.0044 45.4699 8.13834C47.4474 4.4671 45.4699 4.83822 42.8218 4.61218Z" fill="#AAD0F2"/>
<path d="M4.13137 0C2.18681 0 1.82477 2.73945 1.99865 5.08981C2.12253 6.76443 3.86981 7.56643 5.43012 6.94586C6.57248 6.49151 7.49745 5.99143 8.07007 4.95739C8.6116 3.97948 9.39781 3.15964 10.2282 2.41134C11.7245 1.06309 7.27142 0 4.13137 0Z" fill="#E46739" fill-opacity="0.9"/>
</g>
</g>
</svg>
